<svg width="57" height="26" viewBox="0 0 57 26" fill="none" xmlns="http://www.w3.org/2000/svg">
<path d="M50.0254 2.71674L52.2996 4.10086C52.2856 4.12607 52.2718 4.15099 52.2582 4.17558L52.2553 4.1809C52.1632 4.34732 52.0791 4.49928 51.9841 4.64959L51.984 4.64953L51.9786 4.65844C51.612 5.26625 51.2613 5.84656 50.864 6.37049L50.8559 6.38118L50.8484 6.39229C50.0663 7.54732 49.2975 8.68237 48.4284 9.761L48.4238 9.76672L48.4193 9.77258C47.598 10.8556 46.7256 11.8842 45.8021 12.8585C44.874 13.8375 43.9493 14.7587 42.9239 15.6785L42.1575 16.3253L41.3857 16.9224L41.3773 16.9289L41.3692 16.9358C41.2535 17.0334 41.1362 17.1202 41.0045 17.2174L40.9995 17.2211C40.8794 17.3098 40.7468 17.4078 40.6122 17.5198L40.2201 17.7784L40.2138 17.7825L40.2077 17.7868C40.1407 17.834 40.0849 17.8694 40.0198 17.9105L40.0177 17.9119C39.9532 17.9527 39.8796 17.9993 39.7916 18.0612C38.732 18.8064 37.6159 19.3962 36.482 19.9399L36.4734 19.944L36.4649 19.9485L36.0774 20.1529C35.9787 20.1911 35.888 20.239 35.825 20.2723L35.8148 20.2777C35.7297 20.3226 35.685 20.345 35.6481 20.358L35.6481 20.3579L35.6395 20.3611L34.7552 20.6904L34.6466 20.7308L34.6235 20.7552C34.6133 20.7591 34.6018 20.7636 34.5896 20.7687H34.4616H34.3762L34.2957 20.797L33.8276 20.9616L33.3594 21.1262C33.3262 21.1379 33.2882 21.1456 33.2047 21.1603L33.1949 21.1621C33.1271 21.1739 33.0249 21.1918 32.9166 21.2274L32.0693 21.4377L31.1501 21.5993L31.1096 21.6064L31.0708 21.6201C31.0376 21.6317 30.9996 21.6395 30.916 21.6542L30.9063 21.6559C30.8456 21.6665 30.7574 21.682 30.6619 21.7106L30.2422 21.7598L30.2279 21.7614L30.2138 21.7639C30.0825 21.787 29.9479 21.7992 29.7885 21.8132L29.7799 21.8139C29.6376 21.8264 29.4743 21.8408 29.3072 21.8686L28.4132 21.921H28.4123H28.4114H28.4105H28.4095H28.4086H28.4077H28.4068H28.4059H28.405H28.4041H28.4031H28.4022H28.4013H28.4004H28.3995H28.3986H28.3977H28.3967H28.3958H28.3949H28.394H28.3931H28.3922H28.3913H28.3903H28.3894H28.3885H28.3876H28.3867H28.3858H28.3849H28.3839H28.383H28.3821H28.3812H28.3803H28.3794H28.3785H28.3775H28.3766H28.3757H28.3748H28.3739H28.373H28.3721H28.3711H28.3702H28.3693H28.3684H28.3675H28.3666H28.3657H28.3647H28.3638H28.3629H28.362H28.3611H28.3602H28.3593H28.3583H28.3574H28.3565H28.3556H28.3547H28.3538H28.3529H28.3519H28.351H28.3501H28.3492H28.3483H28.3474H28.3465H28.3455H28.3446H28.3437H28.3428H28.3419H28.341H28.3401H28.3391H28.3382H28.3373H28.3364H28.3355H28.3346H28.3337H28.3327H28.3318H28.3309H28.33H28.3291H28.3282H28.3273H28.3263H28.3254H28.3245H28.3236H28.3227H28.3218H28.3209H28.3199H28.319H28.3181H28.3172H28.3163H28.3154H28.3145H28.3135H28.3126H28.3117H28.3108H28.3099H28.309H28.3081H28.3071H28.3062H28.3053H28.3044H28.3035H28.3026H28.3017H28.3007H28.2998H28.2989H28.298H28.2971H28.2962H28.2953H28.2943H28.2934H28.2925H28.2916H28.2907H28.2898H28.2889H28.2879H28.287H28.2861H28.2852H28.2843H28.2834H28.2825H28.2815H28.2806H28.2797H28.2788H28.2779H28.277H28.2761H28.2751H28.2742H28.2733H28.2724H28.2715H28.2706H28.2697H28.2687H28.2678H28.2669H28.266H28.2651H28.2642H28.2633H28.2623H28.2614H28.2605H28.2596H28.2587H28.2578H28.2569H28.2559H28.255H28.2541H28.2532H28.2523H28.2514H28.2505H28.2495H28.2486H28.2477H28.2468H28.2459H28.245H28.2441H28.2431H28.2422H28.2413H28.2404H28.2395H28.2386H28.2377H28.2367H28.2358H28.2349H28.234H28.2331H28.2322H28.2313H28.2303H28.2294H28.2285H28.2276H28.2267H28.2258H28.2249H28.2239H28.223H28.2221H28.2212H28.2203H28.2194H28.2185H28.2175H28.2166H28.2157H28.2148H28.2139H28.213H28.2121H28.2111H28.2102H28.2093H28.2084H28.2075H28.2066H28.2057H28.2047H28.2038H28.2029H28.202H28.2011H28.2002H28.1993H28.1983H28.1974H28.1965H28.1956H28.1947H28.1938H28.1929H28.1919H28.191H28.1901H28.1892H28.1883H28.1874H28.1865H28.1855H28.1846H28.1837H28.1828H28.1819H28.181H28.1801H28.1791H28.1782H28.1773H28.1764H28.1755H28.1746H28.1737H28.1727H28.1718H28.1709H28.17H28.1691H28.1682H28.1673H28.1663H28.1654H28.1645H28.1636H28.1627H28.1618H28.1609H28.1599H28.159H28.1581H28.1572H28.1563H28.1554H28.1545H28.1535H28.1526H28.1517H28.1508H28.1499H28.149H28.1481H28.1471H28.1462H28.1453H28.1444H28.1435H28.1426H28.1417H28.1407H28.1398H28.1389H28.138H28.1371H28.1362H28.1353H28.1343H28.1334H28.1325H28.1316H28.1307H28.1298H28.1289H28.1279H28.127H28.1261H28.1252H28.1243H28.1234H28.1224H28.1215H28.1206H28.1197H28.1188H28.1179H28.117H28.116H28.1151H28.1142H28.1133H28.1124H28.1115H28.1106H28.1096H28.1087H28.1078H28.1069H28.106H28.1051H28.1042H28.1032H28.1023H28.1014H28.1005H28.0996H28.0987H28.0978H28.0968H28.0959H28.095H28.0941H28.0932H28.0923H28.0914H28.0904H28.0895H28.0886H28.0877H28.0868H28.0859H28.085H28.084H28.0831H28.0822H28.0813H28.0804H28.0795H28.0786H28.0776H28.0767H28.0758H28.0749H28.074H28.0731H28.0722H28.0712H28.0703H28.0694H28.0685H28.0676H28.0667H28.0658H28.0648H28.0639H28.063H28.0621H28.0612H28.0603H28.0594H28.0584H28.0575H28.0566H28.0557H28.0548H28.0539H28.053H28.052H28.0511H28.0502H28.0493H28.0484H28.0475H28.0466H28.0456H28.0447H28.0438H28.0429H28.042H28.0411H28.0402H28.0392H28.0383H28.0374H28.0365H28.0356H28.0347H28.0338H28.0328H28.0319H28.031H28.0301H28.0292H28.0283H28.0274H28.0264H28.0255H28.0246H28.0237H28.0228H28.0219H28.021H28.02H28.0191H28.0182H28.0173H28.0164H28.0155H28.0146H28.0136H28.0127H28.0118H28.0109H28.01H28.0091H28.0082H28.0072H28.0063H28.0054H28.0045H28.0036H28.0027H28.0018H28.0008H27.9999H27.999H27.9981H27.9972H27.9963H27.9954H27.9944H27.9935H27.9926H27.9917H27.9908H27.9899H27.989H27.988H27.9871H27.9862H27.9853H27.9844H27.9835H27.9826H27.9816H27.9807H27.9798H27.9789H27.978H27.9771H27.9762H27.9752H27.9743H27.9734H27.9725H27.9716H27.9707H27.9698H27.9688H27.9679H27.967H27.9661H27.9652H27.9643H27.9634H27.9624H27.9615H27.9606H27.9597H27.5179L27.0239 21.8689L26.9977 21.8661H26.9714C26.8038 21.8661 26.7324 21.8618 26.6691 21.8396L26.6167 21.8211L26.5615 21.8147L25.6395 21.7066C24.407 21.4895 23.206 21.2227 22.0647 20.7516L22.0555 20.7478L22.0462 20.7444C20.8941 20.3217 19.7826 19.7374 18.6505 19.0864C17.5704 18.3806 16.5059 17.6304 15.5481 16.7794L15.5481 16.7794L15.5433 16.7752C13.5474 15.0476 11.7492 13.0441 10.0442 10.9188C8.64085 9.08068 7.33065 7.14976 6.15479 5.08074L7.79006 4.01914L7.79785 4.01408L7.80544 4.00874C8.30102 3.6602 8.51006 3.00096 8.16415 2.42515C8.0276 2.15533 7.79387 1.94995 7.50093 1.86934C7.19871 1.78616 6.88069 1.84886 6.61491 2.03225L2.04459 4.99082L2.03653 4.99604L2.02867 5.00157C1.53305 5.35014 1.32401 6.00946 1.67005 6.5853C1.8778 6.99488 2.27848 7.17262 2.68041 7.17262C2.81828 7.17262 2.93446 7.13616 3.00882 7.11001C3.04355 7.09779 3.07915 7.08404 3.10831 7.07278L3.11645 7.06963C3.14952 7.05687 3.17913 7.04555 3.21038 7.03456L3.26551 7.01517L3.31468 6.9836L5.19255 5.77776C5.19628 5.78759 5.20001 5.79744 5.20375 5.80731L5.20491 5.81036C5.27972 6.00767 5.3569 6.21122 5.4346 6.4033C5.64807 7.07578 5.91347 7.74663 6.23024 8.41578C6.81441 9.75903 7.50232 10.9857 8.28743 12.2559C9.76297 14.7015 11.5555 17.0378 13.614 19.098L13.6138 19.0981L13.6234 19.1071C14.676 20.1066 15.7889 21.0578 17.0132 21.9001C18.2414 22.7451 19.5183 23.4177 20.8899 24.0299L20.9011 24.0349L20.9126 24.0394L21.9009 24.4235L21.919 24.4305L21.9377 24.4362C22.114 24.4893 22.2782 24.5426 22.4478 24.5976L22.4499 24.5983C22.6146 24.6518 22.7845 24.7069 22.9676 24.7622C23.0536 24.7921 23.149 24.8208 23.2321 24.8459L23.2381 24.8477C23.332 24.876 23.4114 24.9 23.4766 24.923L23.5073 24.9338L23.5392 24.9405L24.0594 25.0503L24.5526 25.1543C24.6657 25.1897 24.7811 25.207 24.8545 25.218L24.8683 25.2201C24.971 25.2355 25.0122 25.2435 25.037 25.2522L25.0816 25.2679L25.1284 25.2749L26.1813 25.4336C26.4084 25.5009 26.6618 25.5003 26.7929 25.5C26.8009 25.5 26.8084 25.5 26.8154 25.5H27.3355H27.8557H27.8566H27.8575H27.8584H27.8593H27.8603H27.8612H27.8621H27.863H27.8639H27.8649H27.8658H27.8667H27.8677H27.8686H27.8695H27.8704H27.8714H27.8723H27.8733H27.8742H27.8751H27.8761H27.877H27.8779H27.8789H27.8798H27.8808H27.8817H27.8827H27.8836H27.8846H27.8855H27.8865H27.8874H27.8884H27.8893H27.8903H27.8912H27.8922H27.8931H27.8941H27.8951H27.896H27.897H27.8979H27.8989H27.8999H27.9008H27.9018H27.9028H27.9037H27.9047H27.9057H27.9067H27.9076H27.9086H27.9096H27.9106H27.9115H27.9125H27.9135H27.9145H27.9154H27.9164H27.9174H27.9184H27.9194H27.9204H27.9213H27.9223H27.9233H27.9243H27.9253H27.9263H27.9273H27.9283H27.9292H27.9302H27.9312H27.9322H27.9332H27.9342H27.9352H27.9362H27.9372H27.9382H27.9392H27.9402H27.9412H27.9422H27.9432H27.9442H27.9452H27.9462H27.9472H27.9482H27.9493H27.9503H27.9513H27.9523H27.9533H27.9543H27.9553H27.9563H27.9573H27.9584H27.9594H27.9604H27.9614H27.9624H27.9634H27.9645H27.9655H27.9665H27.9675H27.9685H27.9696H27.9706H27.9716H27.9726H27.9736H27.9747H27.9757H27.9767H27.9777H27.9788H27.9798H27.9808H27.9819H27.9829H27.9839H27.985H27.986H27.987H27.988H27.9891H27.9901H27.9911H27.9922H27.9932H27.9943H27.9953H27.9963H27.9974H27.9984H27.9994H28.0005H28.0015H28.0026H28.0036H28.0046H28.0057H28.0067H28.0078H28.0088H28.0098H28.0109H28.0119H28.013H28.014H28.0151H28.0161H28.0172H28.0182H28.0193H28.0203H28.0214H28.0224H28.0235H28.0245H28.0256H28.0266H28.0277H28.0287H28.0298H28.0308H28.0319H28.0329H28.034H28.035H28.0361H28.0371H28.0382H28.0392H28.0403H28.0413H28.0424H28.0435H28.0445H28.0456H28.0466H28.0477H28.0487H28.0498H28.0509H28.0519H28.053H28.054H28.0551H28.0561H28.0572H28.0583H28.0593H28.0604H28.0614H28.0625H28.0636H28.0646H28.0657H28.0668H28.0678H28.0689H28.0699H28.071H28.0721H28.0731H28.0742H28.0753H28.0763H28.0774H28.0784H28.0795H28.0806H28.0816H28.0827H28.0838H28.0848H28.0859H28.087H28.088H28.0891H28.0902H28.0912H28.0923H28.0934H28.0944H28.0955H28.0965H28.0976H28.0987H28.0997H28.1008H28.1019H28.1029H28.104H28.1051H28.1061H28.1072H28.1083H28.1093H28.1104H28.1115H28.1125H28.1136H28.1147H28.1157H28.1168H28.1179H28.1189H28.12H28.1211H28.1221H28.1232H28.1243H28.1253H28.1264H28.1275H28.1285H28.1296H28.1307H28.1317H28.1328H28.1339H28.1349H28.136H28.1371H28.1381H28.1392H28.1403H28.1413H28.1424H28.1435H28.1445H28.1456H28.1467H28.1477H28.1488H28.1499H28.1509H28.152H28.153H28.1541H28.1552H28.1562H28.1573H28.1584H28.1594H28.1605H28.1616H28.1626H28.1637H28.1647H28.1658H28.1669H28.1679H28.169H28.17H28.1711H28.1722H28.1732H28.1743H28.1753H28.1764H28.1775H28.1785H28.1796H28.1806H28.1817H28.1828H28.1838H28.1849H28.1859H28.187H28.188H28.1891H28.1901H28.1912H28.1923H28.1933H28.1944H28.1954H28.1965H28.1975H28.1986H28.1996H28.2007H28.2017H28.2028H28.2038H28.2049H28.2059H28.207H28.208H28.2091H28.2101H28.2112H28.2122H28.2133H28.2143H28.2154H28.2164H28.2175H28.2185H28.2196H28.2206H28.2216H28.2227H28.2237H28.2248H28.2258H28.2269H28.2279H28.2289H28.23H28.231H28.2321H28.2331H28.2341H28.2352H28.2362H28.2372H28.2383H28.2393H28.2403H28.2414H28.2424H28.2434H28.2445H28.2455H28.2465H28.2476H28.2486H28.2496H28.2507H28.2517H28.2527H28.2537H28.2548H28.2558H28.2568H28.2578H28.2589H28.2599H28.2609H28.2619H28.263H28.264H28.265H28.266H28.267H28.2681H28.2691H28.2701H28.2711H28.2721H28.2731H28.2742H28.2752H28.2762H28.2772H28.2782H28.2792H28.2802H28.2812H28.2822H28.2832H28.2843H28.2853H28.2863H28.2873H28.2883H28.2893H28.2903H28.2913H28.2923H28.2933H28.2943H28.2953H28.2963H28.2973H28.2983H28.2993H28.3003H28.3012H28.3022H28.3032H28.3042H28.3052H28.3062H28.3072H28.3082H28.3092H28.3102H28.3111H28.3121H28.3131H28.3141H28.3151H28.316H28.317H28.318H28.319H28.32H28.3209H28.3219H28.3229H28.3239H28.3248H28.3258H28.3268H28.3277H28.3287H28.3297H28.3306H28.3316H28.3326H28.3335H28.3345H28.3355H28.3364H28.3374H28.3383H28.3393H28.3403H28.3412H28.3422H28.3431H28.3441H28.345H28.346H28.3469H28.3479H28.3488H28.3498H28.3507H28.3517H28.3526H28.3535H28.3545H28.3554H28.3564H28.3573H28.3582H28.3592H28.3601H28.361H28.362H28.3629H28.3638H28.3648H28.3657H28.3666H28.3675H28.3685H28.3694H28.3703H28.3712H28.3722H28.3731H28.374H28.3749H28.3758H28.3884L28.4009 25.4994L29.4932 25.4445L29.5181 25.4433L29.5426 25.4395C29.7001 25.4158 29.8599 25.4033 30.0349 25.3897L30.0467 25.3887C30.2128 25.3758 30.399 25.3611 30.5772 25.3309L31.081 25.2778L31.1392 25.2716L31.1944 25.2522C31.2193 25.2435 31.2605 25.2355 31.3632 25.2201L31.377 25.218C31.4504 25.207 31.5658 25.1897 31.6789 25.1543L32.6923 24.9405L32.7045 24.9379L32.7165 24.9347L33.7568 24.6604L33.7569 24.6605L33.7659 24.6579C35.1537 24.2638 36.5359 23.7023 37.8604 23.0317L37.8604 23.0317L37.8678 23.0279C39.1356 22.3591 40.4037 21.5789 41.5675 20.7418L41.5738 20.7372L41.5799 20.7325C42.7376 19.8443 43.8471 18.8973 44.8539 17.891C45.861 16.8845 46.8116 15.7697 47.7059 14.6043C48.6017 13.437 49.3901 12.2722 50.1739 11.0595L50.1781 11.0529L50.1821 11.0463C50.919 9.82471 51.6018 8.55001 52.2308 7.27838L52.2308 7.27841L52.2344 7.27087L52.2381 7.26314C52.5473 6.61059 52.865 5.94027 53.1311 5.26699C53.2101 5.07233 53.2761 4.89179 53.3388 4.71984L54.7506 5.56517L54.7623 5.57212L54.7742 5.57844C54.7794 5.58118 54.7854 5.58438 54.792 5.58797C54.8786 5.6346 55.0854 5.74593 55.3196 5.74593C55.6517 5.74593 56.1228 5.58067 56.3374 5.14356C56.6315 4.58808 56.5361 3.82361 55.9301 3.49379L51.1544 0.646178L51.1432 0.639481L51.1316 0.633381C50.5974 0.351639 49.854 0.520214 49.5622 1.13585C49.3189 1.64925 49.4408 2.39656 50.0254 2.71674Z" fill="#FDFF88" stroke="#2A282E"/>
</svg>
