<svg width="136" height="136" viewBox="0 0 136 136" fill="none" xmlns="http://www.w3.org/2000/svg">
<path d="M72.5795 2.33518C69.7876 0.549676 66.2124 0.549678 63.4205 2.33518L57.5396 6.09609C56.0087 7.07518 54.1743 7.4651 52.3774 7.19336L45.4753 6.14955C42.1985 5.654 38.9325 7.10813 37.1081 9.87486L33.2654 15.7026C32.265 17.2197 30.7478 18.322 28.9958 18.8046L22.2658 20.6584C19.0708 21.5385 16.6785 24.1953 16.1372 27.4649L14.9971 34.3518C14.7003 36.1446 13.7626 37.7688 12.3583 38.9223L6.9642 43.3531C4.40332 45.4566 3.29854 48.8568 4.1339 52.0638L5.89346 58.819C6.35153 60.5776 6.1555 62.4427 5.34181 64.0677L2.21621 70.3094C0.732327 73.2727 1.10603 76.8282 3.17359 79.4183L7.52862 84.8738C8.66237 86.294 9.24189 88.0776 9.15947 89.893L8.84284 96.8664C8.69252 100.177 10.4801 103.273 13.4224 104.798L19.6198 108.011C21.2332 108.847 22.4881 110.241 23.1512 111.933L25.6983 118.432C26.9075 121.518 29.7999 123.619 33.1081 123.816L40.0764 124.23C41.8905 124.338 43.6037 125.1 44.8977 126.376L49.8681 131.278C52.2278 133.605 55.7248 134.348 58.827 133.182L65.3612 130.726C67.0623 130.087 68.9377 130.087 70.6388 130.726L77.173 133.182C80.2752 134.348 83.7722 133.605 86.1319 131.278L91.1023 126.376C92.3963 125.1 94.1095 124.338 95.9236 124.23L102.892 123.816C106.2 123.619 109.092 121.518 110.302 118.432L112.849 111.933C113.512 110.241 114.767 108.847 116.38 108.011L122.578 104.798C125.52 103.273 127.307 100.177 127.157 96.8664L126.841 89.893C126.758 88.0776 127.338 86.294 128.471 84.8738L132.826 79.4183C134.894 76.8282 135.268 73.2727 133.784 70.3094L130.658 64.0677C129.845 62.4427 129.648 60.5776 130.107 58.819L131.866 52.0638C132.701 48.8568 131.597 45.4566 129.036 43.3531L123.642 38.9223C122.237 37.7688 121.3 36.1446 121.003 34.3518L119.863 27.4649C119.321 24.1953 116.929 21.5385 113.734 20.6584L107.004 18.8046C105.252 18.322 103.735 17.2197 102.735 15.7026L98.8919 9.87486C97.0675 7.10813 93.8015 5.654 90.5247 6.14955L83.6226 7.19336C81.8257 7.4651 79.9913 7.07518 78.4604 6.09609L72.5795 2.33518Z" fill="#5ABE96" stroke="#2A282E"/>
<path d="M70.8746 24.6697L71.1185 21.6377L68.8511 15.8833L70.9011 16.0482L71.6495 18.1099L72.177 19.845L72.2752 19.8529L73.0734 18.2245L74.1418 16.309L76.1181 16.468L72.9598 21.7859L72.7159 24.8179L70.8746 24.6697Z" fill="#FDFF88"/>
<path fill-rule="evenodd" clip-rule="evenodd" d="M56.3372 26.4649C59.252 26.4649 61.615 24.1019 61.615 21.187C61.615 18.2721 59.252 15.9092 56.3372 15.9092C53.4223 15.9092 51.0593 18.2721 51.0593 21.187C51.0593 24.1019 53.4223 26.4649 56.3372 26.4649ZM53.9611 21.8762L55.9312 22.4476L56.7635 18.1517L58.0442 18.4003L56.9383 24.0963L53.5982 23.1276L53.9611 21.8762Z" fill="#FDFF88"/>
<path fill-rule="evenodd" clip-rule="evenodd" d="M110.661 77.2704C108.6 79.3316 108.6 82.6733 110.661 84.7344C112.723 86.7956 116.064 86.7956 118.125 84.7344C120.187 82.6733 120.187 79.3316 118.125 77.2704C116.064 75.2093 112.723 75.2093 110.661 77.2704ZM115.586 78.835L113.789 79.824L116.238 83.4502L115.157 84.18L111.911 79.3703L114.958 77.6935L115.586 78.835Z" fill="#FDFF88"/>
<path fill-rule="evenodd" clip-rule="evenodd" d="M39.578 101.175C38.8236 98.3591 35.9296 96.6882 33.114 97.4426C30.2985 98.1971 28.6276 101.091 29.382 103.907C30.1364 106.722 33.0305 108.393 35.846 107.639C38.6616 106.884 40.3324 103.99 39.578 101.175ZM35.7606 104.657L35.8026 102.607L31.4377 102.914L31.3464 101.613L37.1345 101.207L37.0633 104.684L35.7606 104.657Z" fill="#FDFF88"/>
<path d="M78.6327 25.9974C77.5162 25.724 76.7837 25.1431 76.4349 24.2547C76.0941 23.3683 76.0907 22.2432 76.4246 20.8796C76.7585 19.516 77.2814 18.5199 77.9932 17.8912C78.713 17.2645 79.6311 17.0878 80.7475 17.3612C81.8639 17.6346 82.5925 18.2145 82.9333 19.1009C83.2821 19.9893 83.2895 21.1154 82.9556 22.479C82.6217 23.8426 82.0948 24.8377 81.375 25.4645C80.6632 26.0932 79.7491 26.2708 78.6327 25.9974ZM78.9871 24.5501C79.4974 24.675 79.8942 24.5736 80.1774 24.2456C80.4705 23.9117 80.7 23.4058 80.866 22.728L81.2204 21.2806C81.3845 20.6108 81.4127 20.0641 81.3051 19.6405C81.2075 19.2108 80.9034 18.9335 80.3931 18.8085C79.8827 18.6836 79.481 18.788 79.1879 19.122C78.9047 19.4499 78.6811 19.9488 78.5171 20.6186L78.1598 22.078C77.9957 22.7478 77.9625 23.2975 78.0602 23.7272C78.1678 24.1508 78.4767 24.4251 78.9871 24.5501Z" fill="#FDFF88"/>
<path d="M87.5347 19.6745L85.4123 24.6869C85.3066 24.9364 85.2166 25.1701 85.142 25.3882C85.0783 25.602 85.05 25.795 85.0572 25.9675C85.072 26.1432 85.1336 26.303 85.242 26.447C85.3537 26.5834 85.5342 26.7044 85.7837 26.8101C86.0332 26.9157 86.2458 26.9611 86.4214 26.9464C86.6003 26.924 86.7541 26.8554 86.883 26.7406C87.0194 26.629 87.1384 26.4743 87.24 26.2766C87.3523 26.0745 87.4613 25.8487 87.5669 25.5992L89.6894 20.5869L91.3904 21.3072L89.364 26.0927C89.1335 26.6371 88.894 27.0973 88.6455 27.4736C88.4046 27.853 88.1245 28.1356 87.8051 28.3213C87.4857 28.507 87.1158 28.5911 86.6953 28.5735C86.2748 28.556 85.7772 28.4255 85.2027 28.1822C84.6281 27.9389 84.1882 27.6724 83.8829 27.3827C83.5777 27.0929 83.3806 26.7687 83.2917 26.4101C83.2028 26.0515 83.207 25.6521 83.3043 25.2119C83.4091 24.7748 83.5768 24.2841 83.8073 23.7398L85.8337 18.9542L87.5347 19.6745Z" fill="#FDFF88"/>
<path d="M96.9061 35.5462C96.0433 34.7869 95.663 33.9327 95.7653 32.9838C95.8738 32.0403 96.3918 31.0416 97.3192 29.9877C98.2467 28.9338 99.1714 28.293 100.093 28.0655C101.022 27.8434 101.917 28.112 102.78 28.8713C103.643 29.6306 104.02 30.482 103.912 31.4255C103.809 32.3744 103.294 33.3758 102.367 34.4297C101.44 35.4837 100.512 36.1217 99.5835 36.3438C98.6615 36.5714 97.769 36.3055 96.9061 35.5462ZM97.8906 34.4275C98.285 34.7746 98.6837 34.8685 99.0865 34.7089C99.5009 34.5487 99.9386 34.2066 100.4 33.6828L101.384 32.5641C101.84 32.0464 102.118 31.5749 102.219 31.1496C102.331 30.7236 102.19 30.337 101.796 29.9899C101.401 29.6428 100.997 29.5494 100.582 29.7096C100.179 29.8691 99.7503 30.2077 99.2947 30.7255L98.3021 31.8534C97.8465 32.3711 97.5625 32.8429 97.4501 33.2689C97.3493 33.6942 97.4961 34.0804 97.8906 34.4275Z" fill="#FDFF88"/>
<path d="M99.9346 38.0718L106.21 32.1736L107.225 33.3959L103.422 36.8735L102.218 37.9687L102.289 38.054L106.532 35.4917L107.594 36.7708L104.295 40.4702L104.366 40.5555L105.626 39.6054L109.781 36.4753L110.757 37.6502L103.805 42.7335L102.31 40.9332L105.557 37.4214L105.478 37.3267L101.429 39.872L99.9346 38.0718Z" fill="#FDFF88"/>
<path d="M110.168 42.1206L110.099 42.004L105.181 44.9118L104.378 43.5549L111.778 39.1805L112.906 41.0887L108.984 45.6822L109.052 45.7988L113.971 42.8909L114.774 44.2479L107.374 48.6222L106.246 46.714L110.168 42.1206Z" fill="#FDFF88"/>
<path d="M110.355 56.296L111.691 56.0069L112.081 57.8124L117.811 56.5726L117.42 54.7671L118.756 54.478L119.928 59.8944L118.592 60.1835L118.201 58.378L112.472 59.6178L112.863 61.4233L111.527 61.7124L110.355 56.296Z" fill="#FDFF88"/>
<path d="M118.985 66.4443L111.914 66.8248L111.815 64.9802L118.886 64.5997L118.753 62.128L120.266 62.0466L120.631 68.8347L119.118 68.9161L118.985 66.4443Z" fill="#FDFF88"/>
<path d="M105.177 91.5457L107.713 93.2259L113.846 94.0251L112.71 95.7395L110.544 95.3972L108.77 95.0196L108.716 95.1017L109.755 96.588L110.914 98.4496L109.819 100.102L106.693 94.7658L104.157 93.0855L105.177 91.5457Z" fill="#FDFF88"/>
<path d="M100.315 97.7386C101.092 96.8921 101.954 96.5301 102.901 96.6527C103.842 96.7812 104.829 97.3204 105.863 98.2701C106.897 99.2198 107.518 100.158 107.726 101.085C107.928 102.017 107.64 102.907 106.863 103.754C106.085 104.6 105.226 104.959 104.285 104.83C103.338 104.708 102.348 104.172 101.314 103.222C100.28 102.272 99.6623 101.331 99.46 100.398C99.2522 99.4716 99.537 98.5851 100.315 97.7386ZM101.412 98.7466C101.057 99.1336 100.954 99.5301 101.105 99.9363C101.256 100.354 101.589 100.799 102.103 101.271L103.2 102.279C103.708 102.746 104.174 103.034 104.597 103.144C105.02 103.265 105.41 103.132 105.765 102.745C106.121 102.359 106.223 101.956 106.071 101.538C105.921 101.132 105.591 100.696 105.083 100.229L103.977 99.213C103.469 98.7465 103.003 98.4525 102.58 98.331C102.157 98.2211 101.767 98.3597 101.412 98.7466Z" fill="#FDFF88"/>
<path d="M101.581 108.585L98.2025 104.317C98.0344 104.105 97.8725 103.913 97.717 103.743C97.5601 103.585 97.4043 103.467 97.2496 103.391C97.0884 103.319 96.9186 103.297 96.7403 103.323C96.567 103.355 96.3741 103.455 96.1617 103.624C95.9492 103.792 95.8073 103.956 95.736 104.118C95.6697 104.285 95.656 104.453 95.6949 104.621C95.7273 104.795 95.8059 104.973 95.9306 105.157C96.0539 105.353 96.1997 105.557 96.3678 105.769L99.7458 110.037L98.2974 111.184L95.0722 107.109C94.7053 106.645 94.4165 106.214 94.2058 105.816C93.9886 105.422 93.8752 105.041 93.8656 104.671C93.8559 104.302 93.9598 103.937 94.1771 103.577C94.3944 103.216 94.7477 102.842 95.2369 102.455C95.7262 102.068 96.1712 101.81 96.5719 101.681C96.9726 101.553 97.3516 101.535 97.7088 101.63C98.0661 101.724 98.4145 101.919 98.754 102.216C99.087 102.518 99.437 102.9 99.8038 103.364L103.029 107.439L101.581 108.585Z" fill="#FDFF88"/>
<path d="M83.1813 109.201C84.2609 108.807 85.1929 108.881 85.9772 109.425C86.7538 109.972 87.383 110.904 87.8648 112.223C88.3465 113.542 88.4668 114.66 88.2255 115.579C87.9765 116.5 87.3122 117.158 86.2326 117.552C85.153 117.947 84.2249 117.871 83.4483 117.324C82.6639 116.78 82.0309 115.849 81.5491 114.53C81.0673 113.212 80.951 112.092 81.2 111.17C81.4413 110.252 82.1017 109.595 83.1813 109.201ZM83.6927 110.601C83.1991 110.781 82.926 111.086 82.8734 111.516C82.8158 111.957 82.9068 112.505 83.1463 113.16L83.6576 114.56C83.8943 115.208 84.1752 115.677 84.5004 115.969C84.8207 116.272 85.2277 116.333 85.7212 116.153C86.2147 115.972 86.4903 115.662 86.5478 115.221C86.6005 114.791 86.5085 114.252 86.2718 113.605L85.7562 112.194C85.5196 111.546 85.2411 111.071 84.9208 110.768C84.5956 110.476 84.1862 110.42 83.6927 110.601Z" fill="#FDFF88"/>
<path d="M79.4869 110.631L81.6251 118.973L80.0648 119.272L78.854 114.263L78.4754 112.68L78.3665 112.701L78.5635 117.654L76.9307 117.967L75.2824 113.292L75.1735 113.313L75.3977 114.875L76.134 120.026L74.6343 120.313L73.5363 111.771L75.8343 111.331L77.3436 115.869L77.4646 115.846L77.1889 111.071L79.4869 110.631Z" fill="#FDFF88"/>
<path d="M71.0034 117.635L71.1388 117.631L70.9643 111.92L72.5398 111.871L72.8023 120.463L70.5867 120.531L68.455 114.879L68.3196 114.883L68.4941 120.595L66.9185 120.643L66.656 112.051L68.8717 111.984L71.0034 117.635Z" fill="#FDFF88"/>
<path d="M58.5007 110.983L58.1134 112.294L56.3419 111.77L54.6809 117.392L56.4525 117.915L56.0652 119.226L50.7505 117.656L51.1379 116.345L52.9094 116.869L54.5704 111.247L52.7988 110.723L53.1861 109.413L58.5007 110.983Z" fill="#FDFF88"/>
<path d="M45.4658 113.668L48.5185 107.278L50.1852 108.075L47.1326 114.464L49.366 115.531L48.713 116.898L42.5793 113.967L43.2323 112.601L45.4658 113.668Z" fill="#FDFF88"/>
<path d="M30.0303 89.5135L27.3416 90.9359L23.7049 95.9388L22.7432 94.121L24.0805 92.3825L25.2608 91.0057L25.2148 90.9187L23.4125 91.1198L21.2229 91.2472L20.2957 89.4946L26.4778 89.3031L29.1665 87.8807L30.0303 89.5135Z" fill="#FDFF88"/>
<path d="M26.9858 82.2584C27.3544 83.3471 27.2574 84.277 26.695 85.0481C26.1299 85.8114 25.1825 86.4181 23.8527 86.8682C22.5229 87.3183 21.4018 87.4118 20.4893 87.1486C19.5742 86.8776 18.9323 86.1978 18.5638 85.1091C18.1953 84.0204 18.2936 83.0943 18.8586 82.331C19.421 81.5599 20.3672 80.9493 21.6969 80.4992C23.0267 80.0491 24.1492 79.9595 25.0643 80.2305C25.9768 80.4937 26.6173 81.1697 26.9858 82.2584ZM25.5744 82.7361C25.4059 82.2384 25.1074 81.9581 24.6787 81.8952C24.2396 81.8271 23.6896 81.905 23.0286 82.1287L21.6171 82.6064C20.9639 82.8276 20.4874 83.0972 20.1877 83.4153C19.8776 83.7283 19.8068 84.1336 19.9753 84.6313C20.1437 85.129 20.4475 85.4119 20.8866 85.48C21.3153 85.5429 21.8562 85.4638 22.5094 85.2427L23.9326 84.761C24.5858 84.5399 25.0675 84.2729 25.3776 83.9599C25.6772 83.6417 25.7429 83.2338 25.5744 82.7361Z" fill="#FDFF88"/>
<path d="M16.8073 78.1722L22.172 77.251C22.439 77.2051 22.6844 77.1547 22.9082 77.0996C23.1225 77.0378 23.3002 76.9573 23.4415 76.8581C23.5813 76.7507 23.6825 76.6126 23.7452 76.4436C23.7997 76.2759 23.804 76.0586 23.7582 75.7916C23.7123 75.5246 23.6357 75.3211 23.5284 75.1813C23.413 75.0428 23.2722 74.9504 23.1059 74.904C22.9383 74.8494 22.7438 74.8329 22.5226 74.8542C22.2919 74.8688 22.043 74.8991 21.776 74.9449L16.4113 75.8661L16.0987 74.0455L21.2206 73.166C21.8032 73.066 22.3199 73.0189 22.7707 73.0248C23.2202 73.0226 23.6093 73.1057 23.9381 73.2741C24.2669 73.4426 24.5375 73.7085 24.7499 74.0719C24.9622 74.4353 25.1212 74.9244 25.2268 75.5394C25.3324 76.1543 25.3457 76.6685 25.2667 77.0819C25.1878 77.4953 25.0214 77.8363 24.7676 78.1048C24.5138 78.3733 24.1754 78.5855 23.7524 78.7414C23.328 78.8893 22.8244 79.0132 22.2418 79.1133L17.1199 79.9928L16.8073 78.1722Z" fill="#FDFF88"/>
<path d="M25.1779 61.7118C25.0057 62.8482 24.4929 63.6299 23.6393 64.057C22.787 64.4759 21.6668 64.5802 20.2787 64.3698C18.8907 64.1595 17.8517 63.7281 17.1617 63.0755C16.4729 62.4148 16.2147 61.5162 16.3869 60.3798C16.559 59.2434 17.0713 58.4657 17.9236 58.0468C18.7772 57.6198 19.898 57.5114 21.286 57.7218C22.6741 57.9321 23.7125 58.3676 24.4012 59.0283C25.0912 59.6809 25.3501 60.5754 25.1779 61.7118ZM23.7046 61.4886C23.7833 60.9691 23.6467 60.583 23.2947 60.3304C22.9358 60.0684 22.4114 59.8851 21.7214 59.7806L20.2481 59.5574C19.5663 59.4541 19.0192 59.475 18.6069 59.6201C18.1878 59.7559 17.9389 60.0835 17.8601 60.603C17.7814 61.1225 17.9215 61.5133 18.2804 61.7753C18.6324 62.0279 19.1493 62.2058 19.8312 62.3092L21.3166 62.5342C21.9985 62.6375 22.549 62.6213 22.9682 62.4855C23.3804 62.3404 23.6259 62.0081 23.7046 61.4886Z" fill="#FDFF88"/>
<path d="M25.712 57.8037L17.3662 55.6787L17.8521 54.1662L22.8284 55.5062L24.3986 55.933L24.4325 55.8275L19.9921 53.6249L20.5006 52.0421L25.393 52.8377L25.4269 52.7322L23.9488 52.1797L19.0762 50.3557L19.5433 48.9018L27.5652 52.0351L26.8496 54.2628L22.1434 53.4106L22.1058 53.5278L26.4277 55.576L25.712 57.8037Z" fill="#FDFF88"/>
<path d="M23.6615 47.0078L23.6004 47.1287L28.6998 49.707L27.9885 51.1137L20.3175 47.2351L21.3177 45.2569L27.3006 46.0878L27.3617 45.9669L22.2623 43.3886L22.9736 41.9819L30.6446 45.8605L29.6444 47.8387L23.6615 47.0078Z" fill="#FDFF88"/>
<path d="M35.5396 39.2539L34.5799 38.2805L35.8954 36.9836L31.7799 32.8093L30.4644 34.1062L29.5047 33.1328L33.451 29.2421L34.4107 30.2155L33.0953 31.5124L37.2108 35.6867L38.5262 34.3898L39.4859 35.3632L35.5396 39.2539Z" fill="#FDFF88"/>
<path d="M39.4094 26.4874L43.5395 32.2393L42.039 33.3167L37.9089 27.5649L35.8983 29.0086L35.0148 27.7782L40.5366 23.8133L41.4201 25.0437L39.4094 26.4874Z" fill="#FDFF88"/>
</svg>
