<svg width="120" height="80" viewBox="0 0 120 80" fill="none" xmlns="http://www.w3.org/2000/svg">
<path d="M41.0615 24.1786L41.2418 25.6009L41.9851 24.3749L52.5425 6.9601L46.6651 26.4585L46.2513 27.8313L47.429 27.0135L64.1569 15.3985L50.8569 30.8206L49.9205 31.9064L51.329 31.6383L71.335 27.8313L52.912 36.5105L51.615 37.1216L53.0107 37.4496L72.8356 42.1088L52.4752 42.5444L51.0418 42.5751L52.1835 43.4424L68.3993 55.7624L49.622 47.879L48.3001 47.324L48.9902 48.5807L58.7931 66.4311L44.8457 51.5919L43.8637 50.5472L43.9831 51.9759L45.6781 72.2703L38.9721 53.041L38.5 51.6873L38.0279 53.041L31.3219 72.2703L33.0169 51.9759L33.1363 50.5472L32.1543 51.5919L18.2069 66.4311L28.0098 48.5807L28.6999 47.324L27.378 47.879L8.60071 55.7624L24.8165 43.4424L25.9582 42.5751L24.5248 42.5444L4.16442 42.1088L23.9893 37.4496L25.385 37.1216L24.088 36.5105L5.66504 27.8313L25.671 31.6383L27.0795 31.9064L26.1431 30.8206L12.8431 15.3985L29.571 27.0135L30.7487 27.8313L30.3349 26.4585L24.4575 6.96009L35.0149 24.3749L35.7582 25.6009L35.9385 24.1786L38.5 3.97528L41.0615 24.1786Z" fill="#7EA7D8" stroke="black"/>
<path d="M30.8901 60.75L62.5 6L94.1099 60.75H30.8901Z" fill="#D18CBE" stroke="black"/>
<path d="M35.3507 32.9977C35.3507 34.0599 35.1964 34.9999 34.9623 35.6565C34.8444 35.987 34.7158 36.2191 34.5979 36.3589C34.5402 36.4273 34.494 36.4631 34.4637 36.4804C34.4492 36.4888 34.4394 36.4923 34.4341 36.4938C34.4291 36.4952 34.4266 36.4953 34.4254 36.4953C34.4241 36.4953 34.4216 36.4952 34.4166 36.4938C34.4113 36.4923 34.4015 36.4888 34.387 36.4804C34.3567 36.4631 34.3105 36.4273 34.2528 36.3589C34.135 36.2191 34.0063 35.987 33.8884 35.6565C33.6543 34.9999 33.5 34.0599 33.5 32.9977C33.5 31.9355 33.6543 30.9955 33.8884 30.3388C34.0063 30.0083 34.135 29.7763 34.2528 29.6364C34.3105 29.568 34.3567 29.5322 34.387 29.5149C34.4015 29.5066 34.4113 29.503 34.4166 29.5015C34.4216 29.5001 34.4241 29.5 34.4254 29.5C34.4266 29.5 34.4291 29.5001 34.4341 29.5015C34.4394 29.503 34.4492 29.5066 34.4637 29.5149C34.494 29.5322 34.5402 29.568 34.5979 29.6364C34.7158 29.7763 34.8444 30.0083 34.9623 30.3388C35.1964 30.9955 35.3507 31.9355 35.3507 32.9977Z" fill="#FDFF88" stroke="black"/>
<path d="M44.7799 32.9977C44.7799 34.0599 44.6256 34.9999 44.3915 35.6565C44.2736 35.987 44.145 36.2191 44.0271 36.3589C43.9694 36.4273 43.9232 36.4631 43.8929 36.4804C43.8784 36.4888 43.8686 36.4923 43.8633 36.4938C43.8583 36.4952 43.8558 36.4953 43.8546 36.4953C43.8533 36.4953 43.8508 36.4952 43.8458 36.4938C43.8405 36.4923 43.8307 36.4888 43.8162 36.4804C43.7859 36.4631 43.7397 36.4273 43.682 36.3589C43.5642 36.2191 43.4355 35.987 43.3176 35.6565C43.0835 34.9999 42.9292 34.0599 42.9292 32.9977C42.9292 31.9355 43.0835 30.9955 43.3176 30.3388C43.4355 30.0083 43.5642 29.7763 43.682 29.6364C43.7397 29.568 43.7859 29.5322 43.8162 29.5149C43.8307 29.5066 43.8405 29.503 43.8458 29.5015C43.8508 29.5001 43.8533 29.5 43.8546 29.5C43.8558 29.5 43.8583 29.5001 43.8633 29.5015C43.8686 29.503 43.8784 29.5066 43.8929 29.5149C43.9232 29.5322 43.9694 29.568 44.0271 29.6364C44.145 29.7763 44.2736 30.0083 44.3915 30.3388C44.6256 30.9955 44.7799 31.9355 44.7799 32.9977Z" fill="#FDFF88" stroke="black"/>
<path d="M54.3329 49.5142C54.2992 49.4805 54.2656 49.4465 54.2322 49.4125C54.2476 49.4259 54.263 49.4392 54.2784 49.4526C54.7988 49.9146 55.3676 50.3136 55.9211 50.675L55.9329 50.6827L55.9451 50.6898C56.5225 51.022 57.1206 51.339 57.7554 51.5729C58.4015 51.8383 59.0649 51.9821 59.6969 52.0932L59.711 52.0957L59.7253 52.0974L60.1499 52.1471C60.2775 52.1814 60.3939 52.1832 60.46 52.1831L60.6933 52.2077L60.7195 52.2105H60.7458H60.9798H60.9803H60.9808H60.9812H60.9817H60.9821H60.9826H60.9831H60.9835H60.984H60.9844H60.9849H60.9853H60.9858H60.9863H60.9867H60.9872H60.9876H60.9881H60.9885H60.989H60.9895H60.9899H60.9904H60.9908H60.9913H60.9917H60.9922H60.9927H60.9931H60.9936H60.994H60.9945H60.9949H60.9954H60.9959H60.9963H60.9968H60.9972H60.9977H60.9981H60.9986H60.9991H60.9995H61H61.0004H61.0009H61.0013H61.0018H61.0023H61.0027H61.0032H61.0036H61.0041H61.0045H61.005H61.0055H61.0059H61.0064H61.0068H61.0073H61.0077H61.0082H61.0087H61.0091H61.0096H61.01H61.0105H61.0109H61.0114H61.0119H61.0123H61.0128H61.0132H61.0137H61.0141H61.0146H61.0151H61.0155H61.016H61.0164H61.0169H61.0173H61.0178H61.0183H61.0187H61.0192H61.0196H61.0201H61.0205H61.021H61.0215H61.0219H61.0224H61.0228H61.0233H61.0237H61.0242H61.0247H61.0251H61.0256H61.026H61.0265H61.0269H61.0274H61.0279H61.0283H61.0288H61.0292H61.0297H61.0301H61.0306H61.0311H61.0315H61.032H61.0324H61.0329H61.0333H61.0338H61.0343H61.0347H61.0352H61.0356H61.0361H61.0365H61.037H61.0375H61.0379H61.0384H61.0388H61.0393H61.0397H61.0402H61.0407H61.0411H61.0416H61.042H61.0425H61.0429H61.0434H61.0439H61.0443H61.0448H61.0452H61.0457H61.0461H61.0466H61.0471H61.0475H61.048H61.0484H61.0489H61.0493H61.0498H61.0503H61.0507H61.0512H61.0516H61.0521H61.0525H61.053H61.0535H61.0539H61.0544H61.0548H61.0553H61.0557H61.0562H61.0567H61.0571H61.0576H61.058H61.0585H61.0589H61.0594H61.0599H61.0603H61.0608H61.0612H61.0617H61.0621H61.0626H61.0631H61.0635H61.064H61.0644H61.0649H61.0653H61.0658H61.0663H61.0667H61.0672H61.0676H61.0681H61.0685H61.069H61.0695H61.0699H61.0704H61.0708H61.0713H61.0717H61.0722H61.0727H61.0731H61.0736H61.074H61.0745H61.0749H61.0754H61.0759H61.0763H61.0768H61.0772H61.0777H61.0781H61.0786H61.0791H61.0795H61.08H61.0804H61.0809H61.0813H61.0818H61.0823H61.0827H61.0832H61.0836H61.0841H61.0845H61.085H61.0855H61.0859H61.0864H61.0868H61.0873H61.0877H61.0882H61.0887H61.0891H61.0896H61.09H61.0905H61.0909H61.0914H61.0919H61.0923H61.0928H61.0932H61.0937H61.0941H61.0946H61.0951H61.0955H61.096H61.0964H61.0969H61.0973H61.0978H61.0983H61.0987H61.0992H61.0996H61.1001H61.1005H61.101H61.1015H61.1019H61.1024H61.1028H61.1033H61.1037H61.1042H61.1047H61.1051H61.1056H61.106H61.1065H61.1069H61.1074H61.1079H61.1083H61.1088H61.1092H61.1097H61.1101H61.1106H61.1111H61.1115H61.112H61.1124H61.1129H61.1133H61.1138H61.1143H61.1147H61.1152H61.1156H61.1161H61.1165H61.117H61.1175H61.1179H61.1184H61.1188H61.1193H61.1197H61.1202H61.1207H61.1211H61.1216H61.122H61.1225H61.1229H61.1234H61.1239H61.1243H61.1248H61.1252H61.1257H61.1261H61.1266H61.1271H61.1275H61.128H61.1284H61.1289H61.1293H61.1298H61.1303H61.1307H61.1312H61.1316H61.1321H61.1325H61.133H61.1335H61.1339H61.1344H61.1348H61.1353H61.1357H61.1362H61.1367H61.1371H61.1376H61.138H61.1385H61.1389H61.1394H61.1399H61.1403H61.1408H61.1412H61.1417H61.1421H61.1426H61.1431H61.1435H61.144H61.1444H61.1449H61.1453H61.1458H61.1463H61.1467H61.1472H61.1476H61.1481H61.1485H61.149H61.1495H61.1499H61.1504H61.1508H61.1513H61.1517H61.1522H61.1527H61.1531H61.1536H61.154H61.1545H61.1549H61.1554H61.1559H61.1563H61.1568H61.1572H61.1577H61.1581H61.1586H61.1591H61.1595H61.16H61.1604H61.1609H61.1613H61.1618H61.1623H61.1627H61.1632H61.1636H61.1641H61.1645H61.165H61.1655H61.1659H61.1664H61.1668H61.1673H61.1677H61.1682H61.1687H61.1691H61.1696H61.17H61.1705H61.1709H61.1714H61.1719H61.1723H61.1728H61.1732H61.1737H61.1741H61.1746H61.1751H61.1755H61.176H61.1764H61.1769H61.1773H61.1778H61.1783H61.1787H61.1792H61.1796H61.1801H61.1805H61.181H61.1815H61.1819H61.1824H61.1828H61.1833H61.1837H61.1842H61.1847H61.1851H61.1856H61.186H61.1865H61.1869H61.1874H61.1879H61.1883H61.1888H61.1892H61.1897H61.1901H61.1906H61.1911H61.1915H61.192H61.1924H61.1929H61.1933H61.1938H61.1943H61.1947H61.1952H61.1956H61.1961H61.1965H61.197H61.1975H61.1979H61.1984H61.1988H61.1993H61.1997H61.2002H61.2007H61.2011H61.2016H61.202H61.2025H61.2029H61.2034H61.2039H61.2043H61.2048H61.2052H61.2057H61.2061H61.2066H61.2071H61.2075H61.208H61.2084H61.2089H61.2093H61.2098H61.2103H61.2107H61.2112H61.2116H61.2121H61.2125H61.213H61.2135H61.2139H61.2286L61.2432 52.2096L61.7113 52.1822L61.7402 52.1805L61.7686 52.1755C61.8219 52.1661 61.8785 52.1609 61.9599 52.1537L61.967 52.1531C62.037 52.1469 62.1274 52.139 62.2215 52.1233L62.4425 52.0974L62.4977 52.0909L62.5476 52.0733C62.5495 52.0729 62.5593 52.0708 62.5879 52.0658C62.5898 52.0654 62.5919 52.0651 62.5942 52.0647C62.6232 52.0596 62.6766 52.0503 62.7371 52.0327L63.173 51.956L63.1901 51.953L63.2069 51.9488L63.649 51.8391L63.6721 51.8334L63.6919 51.8264C63.6938 51.826 63.7037 51.8239 63.7322 51.8188C63.7342 51.8185 63.7363 51.8181 63.7385 51.8177C63.7749 51.8114 63.8496 51.7984 63.9285 51.7706L64.1626 51.6883L64.3161 51.6343H64.3608H64.5758L64.6602 51.5453C64.67 51.5405 64.6812 51.5348 64.6934 51.5279L65.0781 51.3847C65.1511 51.3585 65.217 51.3236 65.2507 51.3057C65.2531 51.3045 65.2553 51.3033 65.2573 51.3022C65.2983 51.2806 65.3073 51.2767 65.3073 51.2767L65.3417 51.2646L65.3743 51.2474L65.574 51.1421C66.1539 50.8637 66.7512 50.5492 67.3272 50.1441C67.3552 50.1244 67.3785 50.1096 67.411 50.089L67.413 50.0878C67.4437 50.0683 67.4826 50.0437 67.5288 50.0115L67.7309 49.8782L67.7556 49.8619L67.7782 49.8428C67.8289 49.8 67.8811 49.7613 67.9478 49.712L67.9522 49.7088C68.0124 49.6644 68.0852 49.6106 68.1597 49.5483L68.5419 49.2526L68.5503 49.2461L68.5584 49.2392L68.5803 49.2208C68.1923 49.5835 67.775 49.9321 67.3395 50.2665C66.7897 50.6615 66.1889 51.0313 65.5877 51.3486C64.9642 51.6641 64.3207 51.9246 63.6826 52.1062L63.1791 52.239L62.6711 52.3462L62.6393 52.3529L62.6168 52.3608C62.6165 52.3608 62.6162 52.3609 62.6159 52.361C62.6065 52.3628 62.5946 52.3647 62.5698 52.3684L62.5668 52.3689C62.5459 52.372 62.5138 52.3768 62.481 52.3832C62.4625 52.3869 62.4407 52.3915 62.4168 52.3978L62.2018 52.4205L62.1846 52.4223L62.1676 52.4252C62.1172 52.4341 62.0567 52.4395 61.9649 52.4466L61.9513 52.4477C61.8763 52.4536 61.7825 52.4608 61.6856 52.4744L61.1754 52.5H61.1754H61.1749H61.1744H61.1739H61.1735H61.173H61.1725H61.172H61.1716H61.1711H61.1706H61.1701H61.1697H61.1692H61.1687H61.1682H61.1677H61.1673H61.1668H61.1663H61.1658H61.1653H61.1648H61.1644H61.1639H61.1634H61.1629H61.1624H61.1619H61.1614H61.161H61.1605H61.16H61.1595H61.159H61.1585H61.158H61.1575H61.157H61.1566H61.1561H61.1556H61.1551H61.1546H61.1541H61.1536H61.1531H61.1526H61.1521H61.1516H61.1511H61.1506H61.1501H61.1496H61.1491H61.1486H61.1481H61.1476H61.1471H61.1466H61.1461H61.1456H61.1451H61.1446H61.1441H61.1436H61.1431H61.1426H61.1421H61.1416H61.1411H61.1406H61.1401H61.1396H61.1391H61.1386H61.1381H61.1376H61.1371H61.1366H61.1361H61.1356H61.135H61.1345H61.134H61.1335H61.133H61.1325H61.132H61.1315H61.131H61.1305H61.1299H61.1294H61.1289H61.1284H61.1279H61.1274H61.1269H61.1264H61.1258H61.1253H61.1248H61.1243H61.1238H61.1233H61.1228H61.1222H61.1217H61.1212H61.1207H61.1202H61.1197H61.1191H61.1186H61.1181H61.1176H61.1171H61.1165H61.116H61.1155H61.115H61.1145H61.1139H61.1134H61.1129H61.1124H61.1119H61.1113H61.1108H61.1103H61.1098H61.1093H61.1087H61.1082H61.1077H61.1072H61.1066H61.1061H61.1056H61.1051H61.1045H61.104H61.1035H61.103H61.1024H61.1019H61.1014H61.1009H61.1003H61.0998H61.0993H61.0988H61.0982H61.0977H61.0972H61.0967H61.0961H61.0956H61.0951H61.0945H61.094H61.0935H61.093H61.0924H61.0919H61.0914H61.0908H61.0903H61.0898H61.0893H61.0887H61.0882H61.0877H61.0871H61.0866H61.0861H61.0856H61.085H61.0845H61.084H61.0834H61.0829H61.0824H61.0818H61.0813H61.0808H61.0802H61.0797H61.0792H61.0787H61.0781H61.0776H61.0771H61.0765H61.076H61.0755H61.0749H61.0744H61.0739H61.0733H61.0728H61.0723H61.0717H61.0712H61.0707H61.0701H61.0696H61.0691H61.0685H61.068H61.0675H61.0669H61.0664H61.0659H61.0653H61.0648H61.0643H61.0637H61.0632H61.0627H61.0621H61.0616H61.0611H61.0605H61.06H61.0595H61.0589H61.0584H61.0579H61.0573H61.0568H61.0563H61.0557H61.0552H61.0547H61.0541H61.0536H61.0531H61.0525H61.052H61.0515H61.0509H61.0504H61.0499H61.0493H61.0488H61.0483H61.0477H61.0472H61.0467H61.0461H61.0456H61.0451H61.0445H61.044H61.0435H61.0429H61.0424H61.0419H61.0414H61.0408H61.0403H61.0398H61.0392H61.0387H61.0382H61.0376H61.0371H61.0366H61.036H61.0355H61.035H61.0344H61.0339H61.0334H61.0328H61.0323H61.0318H61.0313H61.0307H61.0302H61.0297H61.0291H61.0286H61.0281H61.0275H61.027H61.0265H61.026H61.0254H61.0249H61.0244H61.0238H61.0233H61.0228H61.0223H61.0217H61.0212H61.0207H61.0201H61.0196H61.0191H61.0186H61.018H61.0175H61.017H61.0165H61.0159H61.0154H61.0149H61.0144H61.0138H61.0133H61.0128H61.0122H61.0117H61.0112H61.0107H61.0102H61.0096H61.0091H61.0086H61.0081H61.0075H61.007H61.0065H61.006H61.0054H61.0049H61.0044H61.0039H61.0034H61.0028H61.0023H61.0018H61.0013H61.0008H61.0002H60.9997H60.9992H60.9987H60.9982H60.9976H60.9971H60.9966H60.9961H60.9956H60.9951H60.9945H60.994H60.9935H60.993H60.9925H60.992H60.9914H60.9909H60.9904H60.9899H60.9894H60.9889H60.9884H60.9878H60.9873H60.9868H60.9863H60.9858H60.9853H60.9848H60.9843H60.9838H60.9832H60.9827H60.9822H60.9817H60.9812H60.9807H60.9802H60.9797H60.9792H60.9787H60.9782H60.9777H60.9772H60.9766H60.9761H60.9756H60.9751H60.9746H60.9741H60.9736H60.9731H60.9726H60.9721H60.9716H60.9711H60.9706H60.9701H60.9696H60.9691H60.9686H60.9681H60.9676H60.9671H60.9666H60.9661H60.9656H60.9651H60.9646H60.9641H60.9636H60.9631H60.9626H60.9621H60.9617H60.9612H60.9607H60.9602H60.9597H60.9592H60.9587H60.9582H60.9577H60.9572H60.9567H60.9563H60.9558H60.9553H60.9548H60.9543H60.9538H60.9533H60.9528H60.9524H60.9519H60.9514H60.9509H60.9504H60.9499H60.9495H60.949H60.9485H60.948H60.9475H60.9471H60.9466H60.9461H60.9456H60.9451H60.9447H60.9442H60.9437H60.9432H60.9428H60.9423H60.9418H60.9413H60.9409H60.9404H60.9399H60.9394H60.939H60.9385H60.938H60.9376H60.9371H60.9366H60.9362H60.9357H60.9352H60.9348H60.9343H60.9338H60.9334H60.9329H60.9324H60.932H60.9315H60.931H60.9306H60.9301H60.9297H60.9292H60.9288H60.9283H60.9278H60.6678H60.4077C60.3663 52.5 60.3391 52.4998 60.3152 52.498C60.3091 52.4975 60.3046 52.497 60.3015 52.4967L60.2689 52.4852L60.2221 52.4781L59.712 52.4013C59.6829 52.3932 59.6565 52.3875 59.6347 52.3832C59.6019 52.3768 59.5698 52.372 59.5489 52.3689L59.5459 52.3684C59.5211 52.3647 59.5093 52.3628 59.4998 52.361C59.4995 52.3609 59.4992 52.3608 59.4989 52.3608L59.4765 52.3529L59.4446 52.3462L59.1845 52.2913L58.9538 52.2426C58.9138 52.2293 58.8731 52.2171 58.8403 52.2072L58.8355 52.2058C58.787 52.1912 58.7532 52.1808 58.727 52.1716L58.7163 52.1679L58.7054 52.1646C58.6202 52.1389 58.5406 52.1131 58.4554 52.0854L58.4535 52.0848C58.3757 52.0596 58.2931 52.0328 58.2043 52.0057L57.7395 51.8251C57.087 51.5333 56.4948 51.2196 55.9317 50.8322C55.3633 50.4411 54.8392 49.9946 54.3329 49.5142Z" fill="#FDFF88" stroke="black"/>
<circle cx="94" cy="37" r="25.5" fill="#E94A42" stroke="black"/>
<path d="M71.2453 39.5937C71.5223 30.9764 72.5884 26.999 76.6459 21.926L79.413 22.1186C74.7048 26.3102 73.1893 30.6097 71.2453 39.5937Z" fill="#FDFF88" stroke="black"/>
<path d="M80.3532 20.1792L78.5543 20.054C79.9139 17.8337 84.8713 15.8637 83.6186 16.5482C82.6164 17.0958 81.0241 19.1971 80.3532 20.1792Z" fill="#FDFF88" stroke="black"/>
</svg>
