<svg width="184" height="184" viewBox="0 0 184 184" fill="none" xmlns="http://www.w3.org/2000/svg">
<path d="M158.3 20.5022L100.836 63.1814L111.463 38.0013L158.3 20.5022Z" fill="#E2761B" stroke="#E2761B" stroke-linecap="round" stroke-linejoin="round"/>
<path d="M25.6421 20.5022L82.644 63.5857L72.5373 38.0013L25.6421 20.5022Z" fill="#E4761B" stroke="#E4761B" stroke-linecap="round" stroke-linejoin="round"/>
<path d="M137.625 119.433L122.32 142.88L155.066 151.89L164.48 119.952L137.625 119.433Z" fill="#E4761B" stroke="#E4761B" stroke-linecap="round" stroke-linejoin="round"/>
<path d="M19.5781 119.952L28.9341 151.89L61.6798 142.88L46.3754 119.433L19.5781 119.952Z" fill="#E4761B" stroke="#E4761B" stroke-linecap="round" stroke-linejoin="round"/>
<path d="M59.8317 79.8142L50.7068 93.6171L83.2215 95.0609L82.0665 60.1205L59.8317 79.8142Z" fill="#E4761B" stroke="#E4761B" stroke-linecap="round" stroke-linejoin="round"/>
<path d="M124.11 79.8142L101.587 59.7163L100.836 95.0609L133.293 93.6171L124.11 79.8142Z" fill="#E4761B" stroke="#E4761B" stroke-linecap="round" stroke-linejoin="round"/>
<path d="M61.6799 142.88L81.2003 133.351L64.3366 120.183L61.6799 142.88Z" fill="#E4761B" stroke="#E4761B" stroke-linecap="round" stroke-linejoin="round"/>
<path d="M102.742 133.351L122.32 142.88L119.606 120.183L102.742 133.351Z" fill="#E4761B" stroke="#E4761B" stroke-linecap="round" stroke-linejoin="round"/>
<path d="M122.32 142.88L102.742 133.351L104.301 146.114L104.128 151.485L122.32 142.88Z" fill="#D7C1B3" stroke="#D7C1B3" stroke-linecap="round" stroke-linejoin="round"/>
<path d="M61.6799 142.88L79.872 151.485L79.7565 146.114L81.2003 133.351L61.6799 142.88Z" fill="#D7C1B3" stroke="#D7C1B3" stroke-linecap="round" stroke-linejoin="round"/>
<path d="M80.1608 111.751L63.8745 106.958L75.3673 101.702L80.1608 111.751Z" fill="#233447" stroke="#233447" stroke-linecap="round" stroke-linejoin="round"/>
<path d="M103.781 111.751L108.575 101.702L120.126 106.958L103.781 111.751Z" fill="#233447" stroke="#233447" stroke-linecap="round" stroke-linejoin="round"/>
<path d="M61.68 142.88L64.4521 119.433L46.3755 119.952L61.68 142.88Z" fill="#CD6116" stroke="#CD6116" stroke-linecap="round" stroke-linejoin="round"/>
<path d="M119.548 119.433L122.32 142.88L137.625 119.952L119.548 119.433Z" fill="#CD6116" stroke="#CD6116" stroke-linecap="round" stroke-linejoin="round"/>
<path d="M133.293 93.6171L100.836 95.0609L103.839 111.751L108.633 101.702L120.183 106.958L133.293 93.6171Z" fill="#CD6116" stroke="#CD6116" stroke-linecap="round" stroke-linejoin="round"/>
<path d="M63.8746 106.958L75.4252 101.702L80.1609 111.751L83.2218 95.0609L50.707 93.6171L63.8746 106.958Z" fill="#CD6116" stroke="#CD6116" stroke-linecap="round" stroke-linejoin="round"/>
<path d="M50.7068 93.6171L64.3364 120.183L63.8744 106.958L50.7068 93.6171Z" fill="#E4751F" stroke="#E4751F" stroke-linecap="round" stroke-linejoin="round"/>
<path d="M120.183 106.958L119.606 120.183L133.293 93.6171L120.183 106.958Z" fill="#E4751F" stroke="#E4751F" stroke-linecap="round" stroke-linejoin="round"/>
<path d="M83.2215 95.0609L80.1606 111.751L83.9723 131.445L84.8386 105.514L83.2215 95.0609Z" fill="#E4751F" stroke="#E4751F" stroke-linecap="round" stroke-linejoin="round"/>
<path d="M100.836 95.0609L99.2766 105.456L99.9697 131.445L103.839 111.751L100.836 95.0609Z" fill="#E4751F" stroke="#E4751F" stroke-linecap="round" stroke-linejoin="round"/>
<path d="M103.839 111.751L99.9697 131.445L102.742 133.351L119.606 120.183L120.183 106.958L103.839 111.751Z" fill="#F6851B" stroke="#F6851B" stroke-linecap="round" stroke-linejoin="round"/>
<path d="M63.8745 106.958L64.3365 120.183L81.2003 133.351L83.9724 131.445L80.1608 111.751L63.8745 106.958Z" fill="#F6851B" stroke="#F6851B" stroke-linecap="round" stroke-linejoin="round"/>
<path d="M104.128 151.485L104.301 146.114L102.858 144.844H81.0848L79.7565 146.114L79.872 151.485L61.6799 142.88L68.0327 148.078L80.9116 157.03H103.031L115.967 148.078L122.32 142.88L104.128 151.485Z" fill="#C0AD9E" stroke="#C0AD9E" stroke-linecap="round" stroke-linejoin="round"/>
<path d="M102.742 133.351L99.9698 131.445H83.9723L81.2002 133.351L79.7563 146.114L81.0847 144.844H102.857L104.301 146.114L102.742 133.351Z" fill="#161616" stroke="#161616" stroke-linecap="round" stroke-linejoin="round"/>
<path d="M160.725 65.9535L165.634 42.3905L158.3 20.5022L102.742 61.7376L124.11 79.8142L154.315 88.6503L161.014 80.8537L158.127 78.7746L162.747 74.5587L159.166 71.7866L163.786 68.2637L160.725 65.9535Z" fill="#763D16" stroke="#763D16" stroke-linecap="round" stroke-linejoin="round"/>
<path d="M18.3652 42.3905L23.2742 65.9535L20.1556 68.2637L24.7758 71.7866L21.2529 74.5587L25.8731 78.7746L22.9854 80.8537L29.627 88.6503L59.8317 79.8142L81.2001 61.7376L25.6421 20.5022L18.3652 42.3905Z" fill="#763D16" stroke="#763D16" stroke-linecap="round" stroke-linejoin="round"/>
<path d="M154.315 88.6503L124.11 79.8142L133.293 93.6171L119.606 120.183L137.625 119.952H164.48L154.315 88.6503Z" fill="#F6851B" stroke="#F6851B" stroke-linecap="round" stroke-linejoin="round"/>
<path d="M59.8317 79.8142L29.6271 88.6503L19.5781 119.952H46.3754L64.3364 120.183L50.7068 93.6171L59.8317 79.8142Z" fill="#F6851B" stroke="#F6851B" stroke-linecap="round" stroke-linejoin="round"/>
<path d="M100.836 95.0609L102.742 61.7376L111.52 38.0013H72.5374L81.2003 61.7376L83.2216 95.0609L83.9146 105.572L83.9724 131.445H99.9699L100.085 105.572L100.836 95.0609Z" fill="#F6851B" stroke="#F6851B" stroke-linecap="round" stroke-linejoin="round"/>
</svg>
