<svg width="138" height="138" viewBox="0 0 138 138" fill="none" xmlns="http://www.w3.org/2000/svg">
<path d="M69.2694 1.57877L69 1.4065L68.7306 1.57877L56.1647 9.61489L41.4167 7.38453L41.1005 7.33672L40.9245 7.60367L32.7136 20.056L18.3334 24.0171L18.0251 24.102L17.9729 24.4175L15.5367 39.1329L4.01079 48.6005L3.7637 48.8034L3.8443 49.1129L7.60403 63.547L0.925435 76.8841L0.782261 77.17L0.981751 77.4199L10.2873 89.0769L9.61079 103.977L9.59628 104.297L9.88017 104.444L23.1226 111.308L28.5651 125.196L28.6817 125.493L29.0009 125.512L43.8905 126.397L54.5109 136.87L54.7386 137.095L55.0379 136.982L69 131.734L82.9621 136.982L83.2614 137.095L83.4891 136.87L94.1095 126.397L108.999 125.512L109.318 125.493L109.435 125.196L114.877 111.308L128.12 104.444L128.404 104.297L128.389 103.977L127.713 89.0769L137.018 77.4199L137.218 77.17L137.075 76.8841L130.396 63.547L134.156 49.1129L134.236 48.8034L133.989 48.6005L122.463 39.1329L120.027 24.4175L119.975 24.102L119.667 24.0171L105.286 20.056L97.0755 7.60367L96.8995 7.33672L96.5833 7.38453L81.8353 9.61489L69.2694 1.57877Z" fill="#F05E2B" stroke="#2A282E"/>
<path d="M71.1748 20.1802L71.0278 20.1674L70.4895 26.3705L68.7783 26.222L69.5881 16.8906L71.9945 17.0995L73.5817 23.487L73.7288 23.4998L74.2671 17.2967L75.9783 17.4452L75.1685 26.7765L72.7621 26.5677L71.1748 20.1802Z" fill="#FDFF88"/>
<path d="M79.3554 27.9661C78.1461 27.6403 77.3626 26.9891 77.005 26.0126C76.656 25.0383 76.6805 23.8127 77.0785 22.3356C77.4765 20.8585 78.0711 19.7865 78.8623 19.1195C79.6621 18.4549 80.6667 18.2854 81.876 18.6113C83.0853 18.9371 83.8645 19.5872 84.2135 20.5614C84.5711 21.5379 84.5509 22.7647 84.1529 24.2418C83.7549 25.7189 83.156 26.7897 82.3562 27.4544C81.565 28.1214 80.5647 28.292 79.3554 27.9661ZM79.7778 26.3983C80.3307 26.5473 80.7654 26.4467 81.0821 26.0966C81.4098 25.7402 81.6725 25.1948 81.8704 24.4606L82.2928 22.8928C82.4883 22.1673 82.5328 21.5724 82.4262 21.1082C82.3306 20.6377 82.0064 20.328 81.4536 20.1791C80.9008 20.0301 80.4605 20.1338 80.1329 20.4903C79.8162 20.8404 79.5601 21.3783 79.3645 22.1038L78.9386 23.6846C78.7431 24.4102 78.6932 25.0082 78.7888 25.4787C78.8953 25.9428 79.225 26.2494 79.7778 26.3983Z" fill="#FDFF88"/>
<path d="M90.6604 23.9191L87.3341 30.8811L85.5179 30.0134L88.8443 23.0513L86.4106 21.8886L87.1221 20.3993L93.8057 23.5926L93.0941 25.0818L90.6604 23.9191Z" fill="#FDFF88"/>
<path d="M99.9818 40.3582L101.17 38.3532L99.3674 36.5308L97.3587 37.7057L95.9245 36.2554L104.368 31.4728L106.368 33.4956L101.491 41.8849L99.9818 40.3582ZM103.984 33.8523L103.909 33.776L100.748 35.6181L102.107 36.9921L103.984 33.8523Z" fill="#FDFF88"/>
<path d="M102.693 43.6926L108.966 36.3081L110.246 38.1482L106.962 41.7707L105.061 43.7619L105.123 43.8501L107.659 42.7734L112.206 40.9689L113.424 42.7208L104.316 46.0285L102.693 43.6926Z" fill="#FDFF88"/>
<path d="M107.99 53.0583L109.795 51.5839L108.729 49.253L106.439 49.6656L105.591 47.8106L115.164 46.2226L116.347 48.8098L108.883 55.0109L107.99 53.0583ZM113.986 48.3252L113.941 48.2276L110.34 48.8707L111.143 50.6281L113.986 48.3252Z" fill="#FDFF88"/>
<path d="M108.994 55.5758L110.437 55.2046L110.938 57.1539L117.124 55.5622L116.623 53.6129L118.065 53.2417L119.57 59.0897L118.128 59.4609L117.626 57.5116L111.44 59.1033L111.942 61.0526L110.499 61.4238L108.994 55.5758Z" fill="#FDFF88"/>
<path d="M110.805 63.1332L120.142 62.3862L120.303 64.406L112.612 65.0213L112.933 69.0342L111.288 69.1658L110.805 63.1332Z" fill="#FDFF88"/>
<path d="M110.712 75.2718L113.013 74.905L113.264 72.3543L111.077 71.5593L111.277 69.5294L120.35 72.9706L120.071 75.8018L110.501 77.4085L110.712 75.2718ZM118.274 74.1957L118.285 74.0888L114.848 72.8338L114.659 74.7568L118.274 74.1957Z" fill="#FDFF88"/>
<path d="M119.321 80.5197L118.43 83.6843C118.18 84.5713 117.775 85.1867 117.213 85.5305C116.65 85.883 115.997 85.9549 115.257 85.7465C114.74 85.6011 114.363 85.3556 114.126 85.01C113.895 84.6754 113.777 84.2519 113.772 83.7395L113.695 83.7177C113.4 84.2387 113.037 84.6014 112.608 84.8058C112.176 85.0189 111.655 85.0393 111.043 84.8673C110.286 84.654 109.751 84.2432 109.439 83.6349C109.124 83.0352 109.088 82.3048 109.33 81.4437L110.305 77.9819L119.321 80.5197ZM110.854 81.2313C110.723 81.6963 110.705 82.0583 110.799 82.3172C110.894 82.5761 111.148 82.7637 111.561 82.88L111.935 82.9855C112.349 83.1018 112.663 83.0742 112.879 82.9025C113.094 82.7309 113.268 82.4125 113.399 81.9475L113.675 80.9658L111.13 80.2496L110.854 81.2313ZM114.759 82.0656C114.631 82.5221 114.611 82.8742 114.699 83.1221C114.796 83.3724 115.042 83.5533 115.438 83.6648L115.826 83.7738C116.222 83.8853 116.522 83.8583 116.727 83.6929C116.932 83.5274 117.098 83.2165 117.227 82.7601L117.434 82.0238L114.967 81.3294L114.759 82.0656Z" fill="#FDFF88"/>
<path d="M108.041 85.388L116.469 89.4734L115.586 91.2967L108.642 87.9313L106.886 91.5538L105.401 90.8339L108.041 85.388Z" fill="#FDFF88"/>
<path d="M104.715 91.98L112.286 97.4946L108.763 102.332L107.429 101.36L109.767 98.1498L108.032 96.8857L105.772 99.9879L104.438 99.0161L106.698 95.914L104.864 94.5788L102.526 97.7894L101.192 96.8176L104.715 91.98Z" fill="#FDFF88"/>
<path d="M93.8342 107.25L94.3589 104.548L95.9423 104.856L95.4177 107.557L98.1189 108.082L97.8113 109.665L95.1101 109.141L94.5854 111.842L93.0019 111.534L93.5266 108.833L90.8254 108.308L91.133 106.725L93.8342 107.25Z" fill="#FDFF88"/>
<path d="M86.7991 111.122L87.7738 108.549L89.2823 109.12L88.3075 111.693L90.8808 112.668L90.3094 114.177L87.7362 113.202L86.7614 115.775L85.253 115.204L86.2277 112.63L83.6544 111.656L84.2258 110.147L86.7991 111.122Z" fill="#FDFF88"/>
<path d="M79.1659 113.736L80.5922 111.383L81.9717 112.219L80.5454 114.572L82.8986 115.999L82.0625 117.378L79.7093 115.952L78.283 118.305L76.9036 117.469L78.3298 115.116L75.9766 113.689L76.8127 112.31L79.1659 113.736Z" fill="#FDFF88"/>
<path d="M64.1477 118.18L64.2944 118.196L64.9722 112.007L66.6796 112.194L65.66 121.505L63.2589 121.242L61.8158 114.82L61.6691 114.804L60.9913 120.993L59.2838 120.806L60.3035 111.496L62.7046 111.759L64.1477 118.18Z" fill="#FDFF88"/>
<path d="M56.1575 110.215C57.3592 110.568 58.1278 111.236 58.4633 112.221C58.7903 113.202 58.7382 114.427 58.3071 115.895C57.8759 117.363 57.2574 118.421 56.4513 119.07C55.6367 119.717 54.6286 119.863 53.4269 119.51C52.2253 119.157 51.4609 118.49 51.134 117.508C50.7984 116.524 50.8462 115.298 51.2774 113.83C51.7085 112.362 52.3314 111.305 53.146 110.659C53.952 110.01 54.9559 109.862 56.1575 110.215ZM55.6999 111.773C55.1506 111.611 54.7136 111.702 54.3891 112.045C54.0535 112.394 53.7786 112.933 53.5643 113.663L53.1067 115.221C52.8949 115.942 52.837 116.535 52.9331 117.002C53.0181 117.474 53.3352 117.791 53.8845 117.952C54.4339 118.114 54.8763 118.02 55.212 117.671C55.5365 117.328 55.8046 116.796 56.0164 116.075L56.4778 114.505C56.6896 113.784 56.753 113.187 56.668 112.714C56.5719 112.248 56.2492 111.934 55.6999 111.773Z" fill="#FDFF88"/>
<path d="M44.7252 114.144L48.1758 107.243L49.9761 108.143L46.5255 115.044L48.938 116.25L48.1998 117.727L41.5746 114.414L42.3127 112.938L44.7252 114.144Z" fill="#FDFF88"/>
<path d="M35.8192 97.3702L34.5876 99.3486L36.3493 101.21L38.3833 100.08L39.7853 101.561L31.2389 106.157L29.2835 104.091L34.3435 95.8107L35.8192 97.3702ZM31.6745 103.786L31.7483 103.864L34.9486 102.092L33.6204 100.689L31.6745 103.786Z" fill="#FDFF88"/>
<path d="M33.1591 93.9677L26.7036 101.194L25.4707 99.3227L28.8432 95.7829L30.7927 93.8395L30.7337 93.7499L28.1713 94.7632L23.5806 96.4541L22.4067 94.6725L31.5939 91.5922L33.1591 93.9677Z" fill="#FDFF88"/>
<path d="M28.0251 84.5113L26.1931 85.9517L27.215 88.3022L29.5125 87.9324L30.3258 89.803L20.7249 91.2117L19.5906 88.6029L27.169 82.5424L28.0251 84.5113ZM21.9421 89.1315L21.9849 89.2299L25.5976 88.6542L24.8271 86.8821L21.9421 89.1315Z" fill="#FDFF88"/>
<path d="M27.1757 81.9319L25.7264 82.2756L25.262 80.317L19.0469 81.7907L19.5113 83.7492L18.062 84.0929L16.6688 78.2173L18.1181 77.8736L18.5825 79.8322L24.7976 78.3585L24.3332 76.4L25.7825 76.0563L27.1757 81.9319Z" fill="#FDFF88"/>
<path d="M25.5423 74.3526L16.1894 74.8558L16.0805 72.8325L23.7853 72.4179L23.569 68.3981L25.2171 68.3094L25.5423 74.3526Z" fill="#FDFF88"/>
<path d="M25.8611 62.2251L23.5522 62.5412L23.2452 65.0858L25.4142 65.9287L25.1699 67.9537L16.1747 64.3138L16.5155 61.4894L26.1183 60.0935L25.8611 62.2251ZM18.2768 63.1347L18.264 63.2412L21.6717 64.5715L21.9032 62.6531L18.2768 63.1347Z" fill="#FDFF88"/>
<path d="M17.3671 56.7793L18.3289 53.6355C18.5984 52.7544 19.0177 52.1482 19.5868 51.8171C20.1584 51.4775 20.8121 51.4202 21.5478 51.6453C22.0611 51.8023 22.4325 52.0562 22.6619 52.4071C22.8854 52.7468 22.9937 53.1728 22.9866 53.6852L23.0636 53.7087C23.3706 53.1945 23.741 52.8401 24.1747 52.6454C24.6111 52.4421 25.133 52.4333 25.7404 52.6191C26.4932 52.8494 27.0187 53.2722 27.317 53.8873C27.6179 54.4939 27.6375 55.2249 27.3758 56.0804L26.3238 59.5193L17.3671 56.7793ZM25.8479 56.2585C25.9892 55.7965 26.0156 55.4351 25.927 55.1741C25.8385 54.9131 25.5889 54.7198 25.1783 54.5942L24.8062 54.4804C24.3955 54.3547 24.0805 54.3753 23.8611 54.5421C23.6417 54.7088 23.4613 55.0232 23.32 55.4851L23.0217 56.4604L25.5496 57.2337L25.8479 56.2585ZM21.9622 55.3364C22.1009 54.883 22.129 54.5314 22.0464 54.2816C21.9552 54.0292 21.7128 53.8428 21.3193 53.7224L20.9344 53.6046C20.5409 53.4842 20.24 53.5045 20.0318 53.6653C19.8235 53.8261 19.6501 54.1332 19.5113 54.5866L19.2876 55.318L21.7385 56.0678L21.9622 55.3364Z" fill="#FDFF88"/>
<path d="M28.7571 52.1646L20.422 47.892L21.3463 46.0888L28.2126 49.6085L30.049 46.0261L31.5178 46.779L28.7571 52.1646Z" fill="#FDFF88"/>
<path d="M32.2483 45.6685L24.7877 40.0056L28.4061 35.2385L29.7208 36.2364L27.3193 39.4002L29.0295 40.6983L31.3498 37.6414L32.6645 38.6393L30.3442 41.6962L32.1506 43.0673L34.552 39.9035L35.8667 40.9014L32.2483 45.6685Z" fill="#FDFF88"/>
<path d="M43.4489 30.6415L42.8651 33.3305L41.2887 32.9883L41.8726 30.2992L39.1836 29.7154L39.5258 28.1391L42.2149 28.7229L42.7987 26.0339L44.375 26.3761L43.7912 29.0652L46.4802 29.649L46.138 31.2254L43.4489 30.6415Z" fill="#FDFF88"/>
<path d="M50.5835 26.8982L49.5367 29.443L48.0449 28.8294L49.0917 26.2846L46.5469 25.2378L47.1606 23.746L49.7054 24.7928L50.7522 22.248L52.244 22.8617L51.1971 25.4065L53.7419 26.4533L53.1283 27.9451L50.5835 26.8982Z" fill="#FDFF88"/>
<path d="M58.2239 24.4081L56.7516 26.7328L55.3888 25.8697L56.8611 23.5451L54.5364 22.0727L55.3995 20.71L57.7242 22.1823L59.1965 19.8576L60.5593 20.7207L59.0869 23.0454L61.4116 24.5177L60.5486 25.8804L58.2239 24.4081Z" fill="#FDFF88"/>
</svg>
